<?xml version="1.0" encoding="UTF-8"?>
<svg version="1.1" xmlns="http://www.w3.org/2000/svg" width="357" height="317">
<path d="M0 0 C117.81 0 235.62 0 357 0 C357 104.61 357 209.22 357 317 C239.19 317 121.38 317 0 317 C0 212.39 0 107.78 0 0 Z " fill="#FEFDFE" transform="translate(0,0)"/>
<path d="M0 0 C1.03125 0.00322266 2.0625 0.00644531 3.125 0.00976562 C4.20523438 0.01814453 5.28546875 0.02652344 6.3984375 0.03515625 C8.03039062 0.04192383 8.03039062 0.04192383 9.6953125 0.04882812 C12.38807539 0.06063849 15.08072938 0.07710847 17.7734375 0.09765625 C17.7734375 0.75765625 17.7734375 1.41765625 17.7734375 2.09765625 C18.65128906 2.19820313 19.52914062 2.29875 20.43359375 2.40234375 C30.04814599 4.40396983 38.32699693 12.15045351 43.80078125 20.0078125 C48.31121294 27.05483706 51.99554377 34.20258985 54.7734375 42.09765625 C55.01964844 42.79632813 55.26585937 43.495 55.51953125 44.21484375 C59.82931643 59.49228914 56.70816204 77.06164246 49.3046875 90.78515625 C41.85821181 102.03085423 31.41809015 106.78852375 18.7734375 110.09765625 C18.55247374 112.19655436 18.55247374 112.19655436 20.15942383 113.66308594 C20.80161865 114.27571289 21.44381348 114.88833984 22.10546875 115.51953125 C22.81654785 116.20837402 23.52762695 116.8972168 24.26025391 117.60693359 C25.02772949 118.34637207 25.79520508 119.08581055 26.5859375 119.84765625 C50.59608935 143.42860979 68.48347098 172.95558684 69.2109375 207.34765625 C69.25609908 221.59545129 67.24791567 243.32266651 58.31152344 255.00952148 C53.82399746 259.2737252 48.66742226 260.75426424 42.7734375 262.22265625 C41.85224121 262.46927002 40.93104492 262.71588379 39.98193359 262.9699707 C37.25023361 263.69787026 34.51318751 264.40075589 31.7734375 265.09765625 C29.61092887 265.65805414 27.4493878 266.22177375 25.2890625 266.79052734 C23.52875586 267.25106211 21.76450719 267.69645595 20 268.140625 C16.73930444 269.02998466 16.73930444 269.02998466 13.65625 270.49609375 C8.33738544 272.85929666 2.64396593 274.09161506 -2.9765625 275.53515625 C-9.30875451 277.16207625 -15.5628723 278.77694866 -21.6796875 281.1015625 C-29.20882167 283.93558549 -37.0277714 285.60463762 -44.84375 287.453125 C-51.251991 289.00260122 -57.38457713 290.78477251 -63.546875 293.125 C-68.1940321 294.81179609 -72.95390603 296.06973184 -77.7265625 297.34765625 C-78.70109375 297.61578125 -79.675625 297.88390625 -80.6796875 298.16015625 C-87.83657526 300.09765625 -87.83657526 300.09765625 -91.2265625 300.09765625 C-90.81116418 298.55564735 -90.39412418 297.01408074 -89.9765625 295.47265625 C-89.70457031 294.46589844 -89.43257813 293.45914062 -89.15234375 292.421875 C-88.53017162 290.18783077 -87.88122533 287.9610868 -87.20703125 285.7421875 C-78.04974274 255.38937728 -81.54388041 227.66924896 -96.22265625 199.95019531 C-105.18525348 183.41123914 -117.99887165 169.3253471 -131.2265625 156.09765625 C-134.51159002 156.30733886 -137.3706711 156.81824153 -140.5 157.83984375 C-152.20570538 161.62168703 -165.41745795 162.1574498 -176.62109375 156.640625 C-191.64975236 147.74059479 -201.54090246 133.79379411 -206.75390625 117.22265625 C-210.64968739 99.70773939 -208.89069121 81.42621834 -199.2265625 66.09765625 C-196.7684392 63.15643358 -194.15975466 60.56177517 -191.2265625 58.09765625 C-190.36937622 57.37304199 -190.36937622 57.37304199 -189.49487305 56.63378906 C-186.75371806 54.77743913 -184.15894113 53.90353457 -181.00390625 52.8984375 C-179.13327515 52.29769409 -179.13327515 52.29769409 -177.22485352 51.68481445 C-175.87138179 51.25952949 -174.51778149 50.8346535 -173.1640625 50.41015625 C-171.76413425 49.96542546 -170.3643146 49.5203527 -168.96459961 49.07495117 C-155.77438836 44.89443003 -142.51267225 40.96120709 -129.2265625 37.09765625 C-127.0519572 36.46136843 -124.87747713 35.82465245 -122.703125 35.1875 C-114.6435148 32.82857473 -106.58116685 30.48145477 -98.50390625 28.18359375 C-91.51302542 26.188247 -84.53848272 24.1417389 -77.57275391 22.06054688 C-76.2412034 21.66342356 -74.90915784 21.26795692 -73.57666016 20.87402344 C-71.61252274 20.29328888 -69.64987615 19.70774843 -67.6875 19.12109375 C-66.54071777 18.77997559 -65.39393555 18.43885742 -64.21240234 18.08740234 C-61.71231997 17.25867512 -59.55546371 16.29877627 -57.2265625 15.09765625 C-54.79137726 14.42451561 -52.37082401 13.80306099 -49.9140625 13.22265625 C-48.48287904 12.87318889 -47.05189404 12.52290786 -45.62109375 12.171875 C-44.52982178 11.90576416 -44.52982178 11.90576416 -43.41650391 11.63427734 C-39.97222258 10.79029403 -36.53452442 9.9240134 -33.1015625 9.03515625 C-31.92335937 8.73480469 -30.74515625 8.43445312 -29.53125 8.125 C-26.20505411 7.19100882 -26.20505411 7.19100882 -23.21875 5.578125 C-19.97708306 3.9742193 -17.00991607 3.21352071 -13.4765625 2.47265625 C-1.78495918 -0.00980747 -1.78495918 -0.00980747 0 0 Z " fill="#045286" transform="translate(258.2265625,0.90234375)"/>
<path d="M0 0 C8.52595868 5.99003251 13.63732314 15.6877079 16.28515625 25.60546875 C17.27938365 35.18322679 18.11850715 46.42604317 12.75390625 54.80078125 C7.59603659 61.13837642 1.84770012 63.20378815 -5.71484375 65.60546875 C-6.89175781 65.98445313 -8.06867188 66.3634375 -9.28125 66.75390625 C-29.77865408 73.28510156 -50.48208024 79.15968931 -71.16333008 85.07373047 C-87.14209684 89.6396324 -87.14209684 89.6396324 -103.015625 94.5546875 C-116.49874267 98.89143172 -130.16522621 102.62304312 -143.79418945 106.46954346 C-148.20886904 107.71568436 -152.62216984 108.96662282 -157.03515625 110.21875 C-158.19532257 110.54474686 -159.35548889 110.87074371 -160.55081177 111.20661926 C-161.6105722 111.50750961 -162.67033264 111.80839996 -163.76220703 112.1184082 C-164.69751251 112.38232864 -165.63281799 112.64624908 -166.59646606 112.91816711 C-168.67657655 113.41574444 -168.67657655 113.41574444 -169.71484375 114.60546875 C-177.26310442 115.58786182 -183.08466839 114.90237121 -189.3984375 110.5546875 C-198.41532875 102.96711797 -202.93496647 93.40954606 -205.52734375 82.04296875 C-205.62015625 80.34140625 -205.62015625 80.34140625 -205.71484375 78.60546875 C-205.77671875 77.703125 -205.83859375 76.80078125 -205.90234375 75.87109375 C-206.26369353 66.9728554 -204.25796674 60.76694273 -199.65234375 53.23046875 C-196.79936979 50.68100266 -195.20764991 49.87391649 -191.68994141 48.64624023 C-190.70769592 48.30333954 -189.72545044 47.96043884 -188.71343994 47.60714722 C-184.22205198 46.10680295 -179.70978345 44.69376775 -175.17578125 43.328125 C-174.21064606 43.03489853 -173.24551086 42.74167206 -172.25112915 42.43955994 C-169.19821313 41.51287922 -166.14403614 40.5904328 -163.08984375 39.66796875 C-161.06762937 39.0542966 -159.04549339 38.44036604 -157.0234375 37.82617188 C-147.6682856 34.98809048 -138.30611459 32.17664288 -128.92376709 29.42977905 C-121.23087472 27.17601368 -113.55522186 24.86519369 -105.87869263 22.556427 C-87.59950942 17.05968658 -69.31048449 11.59722318 -50.99609375 6.21875 C-50.28396729 6.00943848 -49.57184082 5.80012695 -48.83813477 5.58447266 C-47.49286426 5.19018297 -46.14702094 4.79784095 -44.80053711 4.40771484 C-41.05559883 3.31778749 -37.33634747 2.16848236 -33.625 0.96875 C-11.05480622 -6.25446247 -11.05480622 -6.25446247 0 0 Z " fill="#FEFDFD" transform="translate(276.71484375,25.39453125)"/>
<path d="M0 0 C2.58984375 1.8203125 2.58984375 1.8203125 4.9375 4.125 C7.82020874 6.90664549 10.70854311 9.63467246 13.7421875 12.25 C39.73313614 34.87440331 64.8603795 64.17908476 68 100 C69.19846267 117.60075592 69.23893216 141.75156643 59 157 C54.1161756 162.43128396 48.96084136 164.3909713 42 166.125 C41.07227783 166.37306396 40.14455566 166.62112793 39.1887207 166.87670898 C36.46341802 167.60224753 33.73284816 168.30351295 31 169 C28.39425198 169.68166508 25.79096505 170.37212428 23.1875 171.0625 C21.41439453 171.52849609 21.41439453 171.52849609 19.60546875 172.00390625 C15.70558258 173.08133959 11.85464851 174.27267694 8 175.5 C-12.43143297 182 -12.43143297 182 -18 182 C-17.58460168 180.4579911 -17.16756168 178.91642449 -16.75 177.375 C-16.47800781 176.36824219 -16.20601562 175.36148438 -15.92578125 174.32421875 C-15.30360912 172.09017452 -14.65466283 169.86343055 -13.98046875 167.64453125 C-4.82318024 137.29172103 -8.31731791 109.57159271 -22.99609375 81.85253906 C-33.69450396 62.11043385 -50.10858731 43.98920075 -67.0625 29.375 C-67.72378906 28.80136719 -68.38507813 28.22773438 -69.06640625 27.63671875 C-70.85487614 26.12284221 -72.67253595 24.65377115 -74.5 23.1875 C-75.325 22.465625 -76.15 21.74375 -77 21 C-77 20.34 -77 19.68 -77 19 C-67.99876355 16.35860673 -58.99328633 13.73235691 -49.98208523 11.12515926 C-45.79763026 9.91396673 -41.61480217 8.69767628 -37.43530273 7.46948242 C-33.39930971 6.28366701 -29.35955911 5.11157539 -25.31688118 3.94876289 C-23.7777653 3.5034865 -22.24004889 3.05334213 -20.703825 2.5981884 C-18.54624435 1.95985449 -16.38426593 1.33925635 -14.22045898 0.72241211 C-12.99246078 0.36489365 -11.76446259 0.00737518 -10.49925232 -0.36097717 C-6.64331724 -1.06513632 -3.81197513 -0.85655258 0 0 Z " fill="#0E979A" transform="translate(185,119)"/>
<path d="M0 0 C1.03125 0.00322266 2.0625 0.00644531 3.125 0.00976562 C4.20523438 0.01814453 5.28546875 0.02652344 6.3984375 0.03515625 C8.03039062 0.04192383 8.03039062 0.04192383 9.6953125 0.04882812 C12.38807539 0.06063849 15.08072938 0.07710847 17.7734375 0.09765625 C17.7734375 0.75765625 17.7734375 1.41765625 17.7734375 2.09765625 C18.65128906 2.19820313 19.52914062 2.29875 20.43359375 2.40234375 C30.04814599 4.40396983 38.32699693 12.15045351 43.80078125 20.0078125 C48.31121294 27.05483706 51.99554377 34.20258985 54.7734375 42.09765625 C55.01964844 42.79632813 55.26585937 43.495 55.51953125 44.21484375 C59.82931643 59.49228914 56.70816204 77.06164246 49.3046875 90.78515625 C41.12036849 103.14514823 29.4794155 107.25224863 15.7734375 111.09765625 C15.38414062 110.68515625 14.99484375 110.27265625 14.59375 109.84765625 C10.31500794 105.43089025 5.75872479 101.57623394 0.91015625 97.796875 C-1.2265625 96.09765625 -1.2265625 96.09765625 -3.2265625 94.09765625 C-1.97101563 93.7109375 -0.71546875 93.32421875 0.578125 92.92578125 C4.88185207 91.59249838 9.17429952 90.22650852 13.46142578 88.84082031 C15.32016285 88.24335509 17.18462157 87.66370453 19.05078125 87.08984375 C26.22001986 84.63750019 29.42167123 80.532648 32.90234375 73.96875 C36.11765478 63.37120019 34.9174635 49.80113397 30.3203125 39.83203125 C25.56130307 31.41964085 20.12754328 25.21569151 10.7734375 22.09765625 C1.78843402 21.11571589 -5.93412269 23.4226933 -14.4140625 26.16015625 C-15.74840556 26.57797049 -17.08329596 26.99404039 -18.41870117 27.40844727 C-21.10349169 28.24237372 -23.78623989 29.08242179 -26.46777344 29.92675781 C-31.63743091 31.53715514 -36.83463216 33.04186775 -42.0390625 34.53515625 C-52.27522717 37.49793494 -62.47332423 40.58206018 -72.66830444 43.68273926 C-82.21869537 46.58714417 -91.77730831 49.4601029 -101.3515625 52.28515625 C-110.1772568 54.88966992 -118.99066188 57.52902392 -127.78540039 60.23632812 C-133.23452991 61.9064875 -138.69514421 63.53058025 -144.16986084 65.11451721 C-147.53631422 66.08892085 -150.90059953 67.07071399 -154.26495361 68.05233765 C-155.93456263 68.53707131 -157.60524905 69.01811071 -159.27703857 69.49526978 C-161.63933028 70.16980852 -163.99758075 70.85712499 -166.35546875 71.546875 C-167.06080246 71.74461517 -167.76613617 71.94235535 -168.49284363 72.14608765 C-173.90894367 73.75072173 -178.67212682 75.76046436 -181.87109375 80.5703125 C-182.25652344 81.42496094 -182.64195312 82.27960938 -183.0390625 83.16015625 C-183.63654297 84.44599609 -183.63654297 84.44599609 -184.24609375 85.7578125 C-188.55927495 96.05102182 -186.19968843 107.87643126 -182.6015625 118.09765625 C-179.16168922 126.15787592 -173.69070972 133.35785576 -165.7734375 137.37109375 C-162.62626795 138.26890592 -160.04735316 138.06946477 -156.7890625 137.84765625 C-151.31108341 137.61142638 -148.9659593 138.45111226 -144.9140625 142.16015625 C-143.33669081 143.79174203 -141.77379798 145.4374647 -140.2265625 147.09765625 C-138.70173035 148.47075143 -137.16144669 149.8270153 -135.6015625 151.16015625 C-134.94929688 151.72863281 -134.29703125 152.29710937 -133.625 152.8828125 C-133.16351563 153.28371094 -132.70203125 153.68460938 -132.2265625 154.09765625 C-142.14493864 160.70990701 -155.65395349 161.61009442 -167.2265625 160.09765625 C-179.57566642 156.97933504 -190.58114037 148.13442996 -197.30273438 137.375 C-207.00428547 120.80800188 -211.38981287 102.8179829 -207.1015625 83.72265625 C-204.03696364 73.43130565 -199.49472 65.04357804 -191.2265625 58.09765625 C-190.36937622 57.37304199 -190.36937622 57.37304199 -189.49487305 56.63378906 C-186.75371806 54.77743913 -184.15894113 53.90353457 -181.00390625 52.8984375 C-179.13327515 52.29769409 -179.13327515 52.29769409 -177.22485352 51.68481445 C-175.87138179 51.25952949 -174.51778149 50.8346535 -173.1640625 50.41015625 C-171.76413425 49.96542546 -170.3643146 49.5203527 -168.96459961 49.07495117 C-155.77438836 44.89443003 -142.51267225 40.96120709 -129.2265625 37.09765625 C-127.0519572 36.46136843 -124.87747713 35.82465245 -122.703125 35.1875 C-114.6435148 32.82857473 -106.58116685 30.48145477 -98.50390625 28.18359375 C-91.51302542 26.188247 -84.53848272 24.1417389 -77.57275391 22.06054688 C-76.2412034 21.66342356 -74.90915784 21.26795692 -73.57666016 20.87402344 C-71.61252274 20.29328888 -69.64987615 19.70774843 -67.6875 19.12109375 C-66.54071777 18.77997559 -65.39393555 18.43885742 -64.21240234 18.08740234 C-61.71231997 17.25867512 -59.55546371 16.29877627 -57.2265625 15.09765625 C-54.79137726 14.42451561 -52.37082401 13.80306099 -49.9140625 13.22265625 C-48.48287904 12.87318889 -47.05189404 12.52290786 -45.62109375 12.171875 C-44.52982178 11.90576416 -44.52982178 11.90576416 -43.41650391 11.63427734 C-39.97222258 10.79029403 -36.53452442 9.9240134 -33.1015625 9.03515625 C-31.92335937 8.73480469 -30.74515625 8.43445312 -29.53125 8.125 C-26.20505411 7.19100882 -26.20505411 7.19100882 -23.21875 5.578125 C-19.97708306 3.9742193 -17.00991607 3.21352071 -13.4765625 2.47265625 C-1.78495918 -0.00980747 -1.78495918 -0.00980747 0 0 Z " fill="#B92779" transform="translate(258.2265625,0.90234375)"/>
<path d="M0 0 C1.28218686 1.23835141 2.52984486 2.51298517 3.75 3.8125 C5.40900594 5.30025371 7.07611337 6.77900872 8.75 8.25 C9.59820312 9.02601562 10.44640625 9.80203125 11.3203125 10.6015625 C13.39063538 12.48548975 15.49325614 14.3116909 17.625 16.125 C42.72913472 38.08477845 65.38441281 68.40395912 67.75 102.8125 C67.83121094 103.9675 67.91242188 105.1225 67.99609375 106.3125 C68.57375789 123.39735455 66.27111136 143.62756224 57.15625 158.39453125 C50.7695877 164.81229743 40.79000512 166.38860295 32.3125 168.625 C31.12978516 168.94919922 29.94707031 169.27339844 28.72851562 169.60742188 C20.0041554 171.9395777 20.0041554 171.9395777 17.75 170.8125 C18.3275 170.19375 18.905 169.575 19.5 168.9375 C32.10087109 151.43629015 31.88926508 123.04048208 28.75 102.625 C24.27904545 82.43292155 14.22991224 64.36004819 0.75 48.8125 C0.12351563 48.07644531 -0.50296875 47.34039062 -1.1484375 46.58203125 C-11.81960932 34.37764509 -23.37774791 22.68560492 -36.25 12.8125 C-37.91871109 11.48172621 -39.58592715 10.14906915 -41.25 8.8125 C-39.73705157 8.34872206 -38.22400993 7.88524821 -36.7109375 7.421875 C-35.74422119 7.12563232 -34.77750488 6.82938965 -33.78149414 6.52416992 C-31.67032079 5.88097155 -29.55750397 5.24314398 -27.44311523 4.6105957 C-22.8870999 3.24613938 -18.35174905 1.88703268 -13.88671875 0.24609375 C-4.34052805 -3.08203175 -4.34052805 -3.08203175 0 0 Z " fill="#B82577" transform="translate(222.25,108.1875)"/>
<path d="M0 0 C2.58984375 1.8203125 2.58984375 1.8203125 4.9375 4.125 C7.82020874 6.90664549 10.70854311 9.63467246 13.7421875 12.25 C39.73313614 34.87440331 64.8603795 64.17908476 68 100 C69.19846267 117.60075592 69.23893216 141.75156643 59 157 C54.03720986 162.56544645 48.65737763 164.47501995 41.5625 166.25 C40.65951172 166.49234375 39.75652344 166.7346875 38.82617188 166.984375 C37.0540799 167.45659067 35.27886165 167.91725476 33.50048828 168.36523438 C31.89450607 168.77292367 30.29319599 169.19975874 28.69873047 169.65039062 C25.03641172 170.66454511 22.62612611 171.11879926 19 170 C19.7425 168.96875 20.485 167.9375 21.25 166.875 C32.08005224 149.41806027 32.86084516 120.69208574 28.87084961 100.95605469 C28.06698413 97.58227362 27.09727722 94.28930918 26 91 C25.79101074 90.36449219 25.58202148 89.72898437 25.36669922 89.07421875 C18.18863872 67.95405272 4.25235069 50.87215499 -11 35 C-12.28583984 33.65228516 -12.28583984 33.65228516 -13.59765625 32.27734375 C-18.59808139 27.15012494 -23.84532241 22.52293463 -29.4375 18.05078125 C-32.69481555 15.44393573 -35.8475577 12.73211666 -39 10 C-38 8 -38 8 -35.15185547 6.9309082 C-28.22503038 4.8625123 -28.22503038 4.8625123 -25.06445312 3.94897461 C-22.89988753 3.31973481 -20.74315129 2.6676051 -18.5859375 2.01367188 C-17.20093832 1.60794712 -15.81553271 1.20360673 -14.4296875 0.80078125 C-13.17397949 0.43122314 -11.91827148 0.06166504 -10.62451172 -0.3190918 C-6.70086777 -1.05619559 -3.87904187 -0.88112923 0 0 Z " fill="#75BB46" transform="translate(185,119)"/>
<path d="M0 0 C1.93327567 2.22133671 3.55056739 4.32705129 5.1875 6.75 C5.86329102 7.70132813 5.86329102 7.70132813 6.55273438 8.671875 C8.73488438 11.81260064 10.1299145 14.25575954 11 18 C5.60524732 20.08498161 0.21658047 21.89158433 -5.33984375 23.48828125 C-6.91363394 23.95171909 -8.4871949 24.41593599 -10.06054688 24.88085938 C-12.49821016 25.59885667 -14.93678636 26.31229546 -17.37963867 27.01245117 C-32.1475137 30.6859728 -32.1475137 30.6859728 -43.41772461 40.12231445 C-48.75265028 49.99427368 -47.61346751 60.43878236 -44.8984375 71 C-42.02022559 80.61072499 -35.91599455 89.59637907 -27 94.625 C-15.61523766 99.26323651 -2.8548104 92.91332182 8.11328125 89.33203125 C8.95971191 89.0582666 9.80614258 88.78450195 10.67822266 88.50244141 C12.31499912 87.97086329 13.94897694 87.43056565 15.57958984 86.88037109 C19.86512389 85.48005606 23.42757705 84.68642075 28 85 C28.49094271 92.03684549 27.88124991 101.45248475 23.33081055 107.05517578 C20.51286388 109.40646552 18.19276686 110.13473123 14.66015625 111.10546875 C12.8184082 111.62077148 12.8184082 111.62077148 10.93945312 112.14648438 C9.64717372 112.49363219 8.35485564 112.84063609 7.0625 113.1875 C5.77376012 113.54504229 4.48534448 113.90375546 3.19726562 114.26367188 C-10.36819272 118.0124902 -24.02354689 121.1338739 -37 114 C-37.90363281 113.51402344 -38.80726562 113.02804687 -39.73828125 112.52734375 C-53.9759674 104.19741119 -61.91699376 91.00181621 -66.9375 75.625 C-68.19183352 70.7684779 -68.75561905 66.0030211 -69 61 C-69.08765625 59.79214844 -69.1753125 58.58429688 -69.265625 57.33984375 C-69.95446766 44.26309938 -66.43496253 32.95537295 -57.78125 22.859375 C-49.08170484 13.77827085 -39.56135004 10.33386276 -27.625 6.9375 C-25.28383457 6.2591822 -22.94268843 5.58079785 -20.6015625 4.90234375 C-18.92368652 4.4225708 -18.92368652 4.4225708 -17.21191406 3.93310547 C-13.48923522 2.85161577 -9.79106146 1.69972927 -6.09912109 0.51782227 C-4 0 -4 0 0 0 Z " fill="#B92678" transform="translate(119,174)"/>
<path d="M0 0 C7.38743188 3.62402319 11.4959546 9.69437676 14.26953125 17.22265625 C16.26934364 24.82622099 15.84062849 32.21692039 12.1875 39.21875 C10.39024893 41.91462661 9.09307276 42.96897575 6 44 C1.93828502 44.74698207 -1.4221126 44.77059617 -5.18359375 42.93359375 C-11.7656526 38.36721266 -16.12030896 32.07900715 -17.71484375 24.19921875 C-18.71499648 16.4857121 -18.91744284 9.43517211 -14 3 C-9.72351395 -0.93982651 -5.55572105 -0.783612 0 0 Z " fill="#BA2879" transform="translate(100,84)"/>
<path d="M0 0 C5.76808254 3.93278355 9.29933069 9.01221828 10.75 15.875 C11.53216596 23.49634877 11.64276816 30.6186735 6.75 36.875 C3.4215168 39.83365173 0.26423761 40.48298814 -4.19921875 40.28125 C-8.81283951 39.3673137 -11.89938503 36.61507801 -14.7265625 32.97265625 C-19.96801314 24.98787326 -21.21564813 17.34306211 -20.25 7.875 C-19.10823768 4.36731781 -17.61032521 1.71737712 -14.3828125 -0.28125 C-9.62975452 -2.16158063 -4.74343593 -1.64195859 0 0 Z " fill="#B92678" transform="translate(102.25,218.125)"/>
</svg>
